<svg width="132" height="24" viewBox="0 0 132 24" fill="none" xmlns="http://www.w3.org/2000/svg">
<path d="M6.216 21L0.768 4.344H3.024L7.344 17.928H6.696L10.944 4.344H12.576L16.824 17.928H16.2L20.52 4.344H22.752L17.328 21H15.72L11.448 7.44H12.072L7.824 21H6.216ZM25.1627 21V9.6H27.3227V21H25.1627ZM26.2427 7.32C25.8427 7.32 25.5147 7.192 25.2587 6.936C25.0027 6.664 24.8747 6.328 24.8747 5.928C24.8747 5.544 25.0027 5.224 25.2587 4.968C25.5147 4.696 25.8427 4.56 26.2427 4.56C26.6427 4.56 26.9707 4.696 27.2267 4.968C27.4827 5.224 27.6107 5.544 27.6107 5.928C27.6107 6.328 27.4827 6.664 27.2267 6.936C26.9707 7.192 26.6427 7.32 26.2427 7.32ZM34.1299 21.24C33.4899 21.24 32.8819 21.16 32.3059 21C31.7459 20.824 31.2259 20.584 30.7459 20.28C30.2659 19.96 29.8499 19.584 29.4979 19.152L30.8899 17.76C31.3059 18.272 31.7859 18.656 32.3299 18.912C32.8739 19.152 33.4819 19.272 34.1539 19.272C34.8259 19.272 35.3459 19.16 35.7139 18.936C36.0819 18.696 36.2659 18.368 36.2659 17.952C36.2659 17.536 36.1139 17.216 35.8099 16.992C35.5219 16.752 35.1459 16.56 34.6819 16.416C34.2179 16.256 33.7219 16.104 33.1939 15.96C32.6819 15.8 32.1939 15.6 31.7299 15.36C31.2659 15.12 30.8819 14.792 30.5779 14.376C30.2899 13.96 30.1459 13.408 30.1459 12.72C30.1459 12.032 30.3139 11.44 30.6499 10.944C30.9859 10.432 31.4499 10.04 32.0419 9.768C32.6499 9.496 33.3779 9.36 34.2259 9.36C35.1219 9.36 35.9139 9.52 36.6019 9.84C37.3059 10.144 37.8819 10.608 38.3299 11.232L36.9379 12.624C36.6179 12.208 36.2179 11.888 35.7379 11.664C35.2739 11.44 34.7459 11.328 34.1539 11.328C33.5299 11.328 33.0499 11.44 32.7139 11.664C32.3939 11.872 32.2339 12.168 32.2339 12.552C32.2339 12.936 32.3779 13.232 32.6659 13.44C32.9539 13.648 33.3299 13.824 33.7939 13.968C34.2739 14.112 34.7699 14.264 35.2819 14.424C35.7939 14.568 36.2819 14.768 36.7459 15.024C37.2099 15.28 37.5859 15.624 37.8739 16.056C38.1779 16.488 38.3299 17.056 38.3299 17.76C38.3299 18.832 37.9459 19.68 37.1779 20.304C36.4259 20.928 35.4099 21.24 34.1299 21.24ZM46.0281 21.24C44.8921 21.24 43.8681 20.984 42.9561 20.472C42.0441 19.944 41.3241 19.232 40.7961 18.336C40.2681 17.44 40.0041 16.424 40.0041 15.288C40.0041 14.168 40.2601 13.16 40.7721 12.264C41.3001 11.368 42.0041 10.664 42.8841 10.152C43.7801 9.624 44.7801 9.36 45.8841 9.36C46.9401 9.36 47.8681 9.6 48.6681 10.08C49.4841 10.56 50.1161 11.224 50.5641 12.072C51.0281 12.92 51.2601 13.88 51.2601 14.952C51.2601 15.112 51.2521 15.288 51.2361 15.48C51.2201 15.656 51.1881 15.864 51.1401 16.104H41.5161V14.304H49.9881L49.1961 15C49.1961 14.232 49.0601 13.584 48.7881 13.056C48.5161 12.512 48.1321 12.096 47.6361 11.808C47.1401 11.504 46.5401 11.352 45.8361 11.352C45.1001 11.352 44.4521 11.512 43.8921 11.832C43.3321 12.152 42.9001 12.6 42.5961 13.176C42.2921 13.752 42.1401 14.432 42.1401 15.216C42.1401 16.016 42.3001 16.72 42.6201 17.328C42.9401 17.92 43.3961 18.384 43.9881 18.72C44.5801 19.04 45.2601 19.2 46.0281 19.2C46.6681 19.2 47.2521 19.088 47.7801 18.864C48.3241 18.64 48.7881 18.304 49.1721 17.856L50.5641 19.272C50.0201 19.912 49.3481 20.4 48.5481 20.736C47.7641 21.072 46.9241 21.24 46.0281 21.24Z" fill="#FCFCFC"/>
<path d="M63.216 21L57.768 4.344H60.024L64.344 17.928H63.696L67.944 4.344H69.576L73.824 17.928H73.2L77.52 4.344H79.752L74.328 21H72.72L68.448 7.44H69.072L64.824 21H63.216ZM85.2289 21.24C84.1889 21.24 83.2449 20.984 82.3969 20.472C81.5489 19.944 80.8769 19.232 80.3809 18.336C79.9009 17.44 79.6609 16.432 79.6609 15.312C79.6609 14.192 79.9009 13.184 80.3809 12.288C80.8769 11.392 81.5409 10.68 82.3729 10.152C83.2209 9.624 84.1729 9.36 85.2289 9.36C86.0929 9.36 86.8609 9.544 87.5329 9.912C88.2209 10.264 88.7729 10.76 89.1889 11.4C89.6049 12.024 89.8369 12.752 89.8849 13.584V17.016C89.8369 17.832 89.6049 18.56 89.1889 19.2C88.7889 19.84 88.2449 20.344 87.5569 20.712C86.8849 21.064 86.1089 21.24 85.2289 21.24ZM85.5889 19.2C86.6609 19.2 87.5249 18.84 88.1809 18.12C88.8369 17.384 89.1649 16.448 89.1649 15.312C89.1649 14.528 89.0129 13.848 88.7089 13.272C88.4209 12.68 88.0049 12.224 87.4609 11.904C86.9169 11.568 86.2849 11.4 85.5649 11.4C84.8449 11.4 84.2049 11.568 83.6449 11.904C83.1009 12.24 82.6689 12.704 82.3489 13.296C82.0449 13.872 81.8929 14.536 81.8929 15.288C81.8929 16.056 82.0449 16.736 82.3489 17.328C82.6689 17.904 83.1089 18.36 83.6689 18.696C84.2289 19.032 84.8689 19.2 85.5889 19.2ZM89.0209 21V17.928L89.4289 15.144L89.0209 12.384V9.6H91.2049V21H89.0209ZM94.3496 21V3.864H96.5096V21H94.3496ZM99.6699 21V3.864H101.83V21H99.6699ZM110.27 21.24C109.134 21.24 108.11 20.984 107.198 20.472C106.286 19.944 105.566 19.232 105.038 18.336C104.51 17.44 104.246 16.424 104.246 15.288C104.246 14.168 104.502 13.16 105.014 12.264C105.542 11.368 106.246 10.664 107.126 10.152C108.022 9.624 109.022 9.36 110.126 9.36C111.182 9.36 112.11 9.6 112.91 10.08C113.726 10.56 114.358 11.224 114.806 12.072C115.27 12.92 115.502 13.88 115.502 14.952C115.502 15.112 115.494 15.288 115.478 15.48C115.462 15.656 115.43 15.864 115.382 16.104H105.758V14.304H114.23L113.438 15C113.438 14.232 113.302 13.584 113.03 13.056C112.758 12.512 112.374 12.096 111.878 11.808C111.382 11.504 110.782 11.352 110.078 11.352C109.342 11.352 108.694 11.512 108.134 11.832C107.574 12.152 107.142 12.6 106.838 13.176C106.534 13.752 106.382 14.432 106.382 15.216C106.382 16.016 106.542 16.72 106.862 17.328C107.182 17.92 107.638 18.384 108.23 18.72C108.822 19.04 109.502 19.2 110.27 19.2C110.91 19.2 111.494 19.088 112.022 18.864C112.566 18.64 113.03 18.304 113.414 17.856L114.806 19.272C114.262 19.912 113.59 20.4 112.79 20.736C112.006 21.072 111.166 21.24 110.27 21.24ZM119.258 21V4.824H121.418V21H119.258ZM116.45 11.568V9.6H124.226V11.568H116.45Z" fill="#FCFCFC"/>
</svg>
